<mxfile host="app.diagrams.net" modified="2023-06-18T14:10:26.492Z" agent="Mozilla/5.0 (Windows NT 10.0; Win64; x64) AppleWebKit/537.36 (KHTML, like Gecko) Chrome/113.0.0.0 Safari/537.36" etag="JMeQE-QmGiizGwgY_ft2" version="21.3.4" type="device">
  <diagram name="Page-1" id="7-L1RnnCoF0CQvZS_QzH">
    <mxGraphModel dx="1434" dy="764" grid="1" gridSize="10" guides="1" tooltips="1" connect="1" arrows="1" fold="1" page="1" pageScale="1" pageWidth="2339" pageHeight="3300" math="0" shadow="0">
      <root>
        <mxCell id="0" />
        <mxCell id="1" parent="0" />
        <mxCell id="_v59tbRXcnMdLX6skAAX-7" style="edgeStyle=orthogonalEdgeStyle;rounded=0;orthogonalLoop=1;jettySize=auto;html=1;exitX=1;exitY=0.5;exitDx=0;exitDy=0;entryX=0;entryY=0.5;entryDx=0;entryDy=0;" edge="1" parent="1" source="_v59tbRXcnMdLX6skAAX-3" target="_v59tbRXcnMdLX6skAAX-4">
          <mxGeometry relative="1" as="geometry" />
        </mxCell>
        <mxCell id="_v59tbRXcnMdLX6skAAX-16" value="10" style="edgeLabel;html=1;align=center;verticalAlign=middle;resizable=0;points=[];" vertex="1" connectable="0" parent="_v59tbRXcnMdLX6skAAX-7">
          <mxGeometry x="-0.1571" y="3" relative="1" as="geometry">
            <mxPoint as="offset" />
          </mxGeometry>
        </mxCell>
        <mxCell id="_v59tbRXcnMdLX6skAAX-8" value="100" style="edgeStyle=orthogonalEdgeStyle;rounded=0;orthogonalLoop=1;jettySize=auto;html=1;exitX=0.5;exitY=0;exitDx=0;exitDy=0;" edge="1" parent="1" source="_v59tbRXcnMdLX6skAAX-3" target="_v59tbRXcnMdLX6skAAX-6">
          <mxGeometry relative="1" as="geometry" />
        </mxCell>
        <mxCell id="_v59tbRXcnMdLX6skAAX-9" value="30" style="edgeStyle=orthogonalEdgeStyle;rounded=0;orthogonalLoop=1;jettySize=auto;html=1;exitX=0;exitY=0.5;exitDx=0;exitDy=0;entryX=1;entryY=0.5;entryDx=0;entryDy=0;" edge="1" parent="1" source="_v59tbRXcnMdLX6skAAX-3" target="_v59tbRXcnMdLX6skAAX-5">
          <mxGeometry relative="1" as="geometry" />
        </mxCell>
        <mxCell id="_v59tbRXcnMdLX6skAAX-3" value="0 - Wrocław" style="ellipse;whiteSpace=wrap;html=1;" vertex="1" parent="1">
          <mxGeometry x="680" y="350" width="120" height="80" as="geometry" />
        </mxCell>
        <mxCell id="_v59tbRXcnMdLX6skAAX-11" style="edgeStyle=orthogonalEdgeStyle;rounded=0;orthogonalLoop=1;jettySize=auto;html=1;exitX=0;exitY=1;exitDx=0;exitDy=0;entryX=1;entryY=0.5;entryDx=0;entryDy=0;" edge="1" parent="1" source="_v59tbRXcnMdLX6skAAX-4" target="_v59tbRXcnMdLX6skAAX-10">
          <mxGeometry relative="1" as="geometry" />
        </mxCell>
        <mxCell id="_v59tbRXcnMdLX6skAAX-17" value="50" style="edgeLabel;html=1;align=center;verticalAlign=middle;resizable=0;points=[];" vertex="1" connectable="0" parent="_v59tbRXcnMdLX6skAAX-11">
          <mxGeometry x="0.1393" y="3" relative="1" as="geometry">
            <mxPoint as="offset" />
          </mxGeometry>
        </mxCell>
        <mxCell id="_v59tbRXcnMdLX6skAAX-4" value="1 - Oława" style="ellipse;whiteSpace=wrap;html=1;" vertex="1" parent="1">
          <mxGeometry x="940" y="350" width="120" height="80" as="geometry" />
        </mxCell>
        <mxCell id="_v59tbRXcnMdLX6skAAX-14" style="edgeStyle=orthogonalEdgeStyle;rounded=0;orthogonalLoop=1;jettySize=auto;html=1;exitX=0.5;exitY=1;exitDx=0;exitDy=0;entryX=0;entryY=0.5;entryDx=0;entryDy=0;" edge="1" parent="1" source="_v59tbRXcnMdLX6skAAX-5" target="_v59tbRXcnMdLX6skAAX-10">
          <mxGeometry relative="1" as="geometry" />
        </mxCell>
        <mxCell id="_v59tbRXcnMdLX6skAAX-20" value="20" style="edgeLabel;html=1;align=center;verticalAlign=middle;resizable=0;points=[];" vertex="1" connectable="0" parent="_v59tbRXcnMdLX6skAAX-14">
          <mxGeometry x="0.3421" y="1" relative="1" as="geometry">
            <mxPoint as="offset" />
          </mxGeometry>
        </mxCell>
        <mxCell id="_v59tbRXcnMdLX6skAAX-15" style="edgeStyle=orthogonalEdgeStyle;rounded=0;orthogonalLoop=1;jettySize=auto;html=1;exitX=0.5;exitY=0;exitDx=0;exitDy=0;entryX=-0.008;entryY=0.35;entryDx=0;entryDy=0;entryPerimeter=0;" edge="1" parent="1" source="_v59tbRXcnMdLX6skAAX-5" target="_v59tbRXcnMdLX6skAAX-6">
          <mxGeometry relative="1" as="geometry" />
        </mxCell>
        <mxCell id="_v59tbRXcnMdLX6skAAX-19" value="60" style="edgeLabel;html=1;align=center;verticalAlign=middle;resizable=0;points=[];" vertex="1" connectable="0" parent="_v59tbRXcnMdLX6skAAX-15">
          <mxGeometry x="-0.6719" y="-4" relative="1" as="geometry">
            <mxPoint as="offset" />
          </mxGeometry>
        </mxCell>
        <mxCell id="_v59tbRXcnMdLX6skAAX-5" value="3 - Nysa" style="ellipse;whiteSpace=wrap;html=1;" vertex="1" parent="1">
          <mxGeometry x="390" y="350" width="120" height="80" as="geometry" />
        </mxCell>
        <mxCell id="_v59tbRXcnMdLX6skAAX-6" value="4 - Opole" style="ellipse;whiteSpace=wrap;html=1;" vertex="1" parent="1">
          <mxGeometry x="680" y="100" width="120" height="80" as="geometry" />
        </mxCell>
        <mxCell id="_v59tbRXcnMdLX6skAAX-12" style="edgeStyle=orthogonalEdgeStyle;rounded=0;orthogonalLoop=1;jettySize=auto;html=1;exitX=0.5;exitY=0;exitDx=0;exitDy=0;entryX=0;entryY=0.5;entryDx=0;entryDy=0;" edge="1" parent="1" source="_v59tbRXcnMdLX6skAAX-10" target="_v59tbRXcnMdLX6skAAX-6">
          <mxGeometry relative="1" as="geometry">
            <Array as="points">
              <mxPoint x="730" y="510" />
              <mxPoint x="640" y="510" />
              <mxPoint x="640" y="140" />
            </Array>
          </mxGeometry>
        </mxCell>
        <mxCell id="_v59tbRXcnMdLX6skAAX-18" value="10" style="edgeLabel;html=1;align=center;verticalAlign=middle;resizable=0;points=[];" vertex="1" connectable="0" parent="_v59tbRXcnMdLX6skAAX-12">
          <mxGeometry x="0.2741" y="2" relative="1" as="geometry">
            <mxPoint as="offset" />
          </mxGeometry>
        </mxCell>
        <mxCell id="_v59tbRXcnMdLX6skAAX-10" value="2 - Brzeg" style="ellipse;whiteSpace=wrap;html=1;" vertex="1" parent="1">
          <mxGeometry x="670" y="550" width="120" height="80" as="geometry" />
        </mxCell>
      </root>
    </mxGraphModel>
  </diagram>
</mxfile>
